G04 DipTrace Beta 2.9.0.1*
G04 DAULopampBOTTOM.GBO*
%MOIN*%
G04 #@! TF.FileFunction,Legend,Bot*
G04 #@! TF.Part,Single*
%ADD10C,0.01*%
%ADD14C,0.005*%
%ADD16C,0.009433*%
%ADD21C,0.015746*%
%ADD12C,0.003*%
%FSLAX26Y26*%
G04*
G70*
G90*
G75*
G01*
G04 BotSilk*
%LPD*%
X248500Y202933D2*
D14*
X390500D1*
Y132067D1*
X248500D1*
Y202933D1*
X128698Y251379D2*
D10*
X191689D1*
X128698Y298621D2*
X191689D1*
D16*
X91690Y275000D3*
X28346Y206154D2*
D14*
X71654D1*
Y292461D1*
X28346D1*
Y206154D1*
X346346Y220846D2*
X260039D1*
Y264154D1*
X346346D1*
Y220846D1*
X241496Y243090D2*
X99764D1*
Y117106D1*
X241496D1*
Y243090D1*
D21*
X233623Y258836D3*
X316813Y117447D2*
D12*
X317763Y119348D1*
X319687Y121272D1*
X321588Y122222D1*
X325413D1*
X327336Y121272D1*
X329237Y119348D1*
X330210Y117447D1*
X331161Y114573D1*
Y109776D1*
X330210Y106924D1*
X329237Y105000D1*
X327336Y103099D1*
X325413Y102126D1*
X321588D1*
X319687Y103099D1*
X317763Y105000D1*
X316813Y106924D1*
X310637Y118376D2*
X308713Y119348D1*
X305839Y122200D1*
Y102126D1*
X114331Y319911D2*
Y299815D1*
X107632D1*
X104758Y300787D1*
X102835Y302689D1*
X101884Y304612D1*
X100934Y307464D1*
Y312261D1*
X101884Y315135D1*
X102835Y317037D1*
X104758Y318960D1*
X107632Y319911D1*
X114331D1*
X94758Y316064D2*
X92834Y317037D1*
X89960Y319889D1*
Y299815D1*
X46630Y195792D2*
Y187192D1*
X45657Y184318D1*
X44707Y183346D1*
X42805Y182395D1*
X40882D1*
X38981Y183346D1*
X38008Y184318D1*
X37057Y187192D1*
Y195792D1*
X57153D1*
X46630Y189094D2*
X57153Y182395D1*
X37079Y164745D2*
Y174296D1*
X45679Y175247D1*
X44729Y174296D1*
X43756Y171422D1*
Y168570D1*
X44729Y165696D1*
X46630Y163773D1*
X49504Y162822D1*
X51405D1*
X54279Y163773D1*
X56203Y165696D1*
X57153Y168570D1*
Y171422D1*
X56203Y174296D1*
X55230Y175247D1*
X53329Y176219D1*
X389192Y240870D2*
X380592D1*
X377718Y241843D1*
X376745Y242793D1*
X375794Y244695D1*
Y246618D1*
X376745Y248519D1*
X377718Y249492D1*
X380592Y250443D1*
X389192D1*
Y230347D1*
X382493Y240870D2*
X375794Y230347D1*
X358145Y247569D2*
X359095Y249470D1*
X361969Y250421D1*
X363871D1*
X366745Y249470D1*
X368668Y246596D1*
X369619Y241821D1*
Y237045D1*
X368668Y233221D1*
X366745Y231297D1*
X363871Y230347D1*
X362920D1*
X360068Y231297D1*
X358145Y233221D1*
X357194Y236095D1*
Y237045D1*
X358145Y239919D1*
X360068Y241821D1*
X362920Y242771D1*
X363871D1*
X366745Y241821D1*
X368668Y239919D1*
X369619Y237045D1*
X148115Y228002D2*
Y213654D1*
X147164Y210780D1*
X145241Y208879D1*
X142367Y207906D1*
X140466D1*
X137592Y208879D1*
X135668Y210780D1*
X134718Y213654D1*
Y228002D1*
X126619Y227980D2*
X116117D1*
X121843Y220330D1*
X118969D1*
X117068Y219380D1*
X116117Y218429D1*
X115145Y215555D1*
Y213654D1*
X116117Y210780D1*
X118019Y208856D1*
X120893Y207906D1*
X123767D1*
X126619Y208856D1*
X127569Y209829D1*
X128542Y211730D1*
M02*
