G04 DipTrace Beta 2.9.0.1*
G04 DAULopampBOTTOM.GTO*
%MOIN*%
G04 #@! TF.FileFunction,Legend,Top*
G04 #@! TF.Part,Single*
%ADD14C,0.005*%
%ADD21C,0.015746*%
%ADD12C,0.003*%
%FSLAX26Y26*%
G04*
G70*
G90*
G75*
G01*
G04 TopSilk*
%LPD*%
X400000Y0D2*
D14*
X-10D1*
X400000Y100000D2*
Y0D1*
X-10Y100000D2*
X400000D1*
X-10Y0D2*
Y100000D1*
X-25000Y0D2*
X-10Y25000D1*
X24980Y0D1*
X-10Y-25000D1*
X-25000D1*
Y0D1*
X400000Y300000D2*
X-10D1*
X400000Y400000D2*
Y300000D1*
X-10Y400000D2*
X400000D1*
X-10Y300000D2*
Y400000D1*
X-25000Y300000D2*
X-10Y325000D1*
X24980Y300000D1*
X-10Y275000D1*
X-25000D1*
Y300000D1*
X100500Y288307D2*
X14193D1*
Y245000D1*
X100500D1*
Y288307D1*
X390500Y205807D2*
X304193D1*
Y162500D1*
X390500D1*
Y205807D1*
Y155807D2*
X304193D1*
Y112500D1*
X390500D1*
Y155807D1*
X306154Y245846D2*
X392461D1*
Y289154D1*
X306154D1*
Y245846D1*
X296496Y106910D2*
X154764D1*
Y232894D1*
X296496D1*
Y106910D1*
D21*
X288623Y91164D3*
X148996Y106910D2*
D14*
X7264D1*
Y232894D1*
X148996D1*
Y106910D1*
D21*
X141123Y91164D3*
X196800Y60289D2*
D12*
Y44991D1*
X195849Y42117D1*
X194876Y41166D1*
X192975Y40193D1*
X191052D1*
X189150Y41166D1*
X188200Y42117D1*
X187227Y44991D1*
Y46892D1*
X202975Y56442D2*
X204899Y57415D1*
X207773Y60267D1*
Y40193D1*
X194500Y390289D2*
Y374991D1*
X193549Y372117D1*
X192576Y371166D1*
X190675Y370193D1*
X188752D1*
X186851Y371166D1*
X185900Y372117D1*
X184927Y374991D1*
Y376892D1*
X201648Y385492D2*
Y386442D1*
X202599Y388366D1*
X203550Y389316D1*
X205473Y390267D1*
X209298D1*
X211199Y389316D1*
X212149Y388366D1*
X213122Y386442D1*
Y384541D1*
X212149Y382618D1*
X210248Y379766D1*
X200676Y370193D1*
X214073D1*
X111161Y269024D2*
X119761D1*
X122635Y269996D1*
X123608Y270947D1*
X124559Y272848D1*
Y274772D1*
X123608Y276673D1*
X122635Y277646D1*
X119761Y278596D1*
X111161D1*
Y258500D1*
X117860Y269024D2*
X124559Y258500D1*
X130734Y274750D2*
X132658Y275722D1*
X135532Y278574D1*
Y258500D1*
X330861Y225524D2*
X339461D1*
X342335Y226496D1*
X343308Y227447D1*
X344259Y229348D1*
Y231272D1*
X343308Y233173D1*
X342335Y234146D1*
X339461Y235096D1*
X330861D1*
Y215000D1*
X337560Y225524D2*
X344259Y215000D1*
X351407Y230299D2*
Y231250D1*
X352358Y233173D1*
X353308Y234124D1*
X355232Y235074D1*
X359056D1*
X360958Y234124D1*
X361908Y233173D1*
X362881Y231250D1*
Y229348D1*
X361908Y227425D1*
X360007Y224573D1*
X350434Y215000D1*
X363832D1*
X285861Y70524D2*
X294461D1*
X297335Y71496D1*
X298308Y72447D1*
X299259Y74348D1*
Y76272D1*
X298308Y78173D1*
X297335Y79146D1*
X294461Y80096D1*
X285861D1*
Y60000D1*
X292560Y70524D2*
X299259Y60000D1*
X307358Y80074D2*
X317859D1*
X312133Y72425D1*
X315007D1*
X316908Y71474D1*
X317859Y70524D1*
X318832Y67650D1*
Y65748D1*
X317859Y62874D1*
X315958Y60951D1*
X313084Y60000D1*
X310210D1*
X307358Y60951D1*
X306407Y61924D1*
X305434Y63825D1*
X266347Y266870D2*
X274947D1*
X277821Y267843D1*
X278793Y268793D1*
X279744Y270695D1*
Y272618D1*
X278793Y274519D1*
X277821Y275492D1*
X274947Y276443D1*
X266347D1*
Y256347D1*
X273045Y266870D2*
X279744Y256347D1*
X295492D2*
Y276421D1*
X285920Y263045D1*
X300268D1*
X196445Y220183D2*
Y205835D1*
X197395Y202961D1*
X199319Y201060D1*
X202193Y200087D1*
X204094D1*
X206968Y201060D1*
X208891Y202961D1*
X209842Y205835D1*
Y220183D1*
X216018Y216336D2*
X217941Y217309D1*
X220815Y220161D1*
Y200087D1*
X27645Y223183D2*
Y208835D1*
X28595Y205961D1*
X30519Y204060D1*
X33393Y203087D1*
X35294D1*
X38168Y204060D1*
X40091Y205961D1*
X41042Y208835D1*
Y223183D1*
X48191Y218386D2*
Y219336D1*
X49141Y221260D1*
X50092Y222210D1*
X52015Y223161D1*
X55840D1*
X57741Y222210D1*
X58692Y221260D1*
X59664Y219336D1*
Y217435D1*
X58692Y215512D1*
X56790Y212660D1*
X47218Y203087D1*
X60615D1*
M02*
