G04 DipTrace Beta 2.9.0.1*
G04 DAULopampBOTTOM.GBL*
%MOIN*%
G04 #@! TF.FileFunction,Copper,L2,Bot*
G04 #@! TF.Part,Single*
G04 #@! TA.AperFunction,Conductor,NotC*
%ADD10C,0.01*%
G04 #@! TA.AperFunction,SMDPad,CuDef*
%ADD15R,0.027559X0.051181*%
%ADD17R,0.023622X0.023622*%
G04 #@! TA.AperFunction,ComponentPad*
%ADD18C,0.06*%
G04 #@! TA.AperFunction,SMDPad,CuDef*
%ADD19R,0.019685X0.023622*%
%ADD20R,0.023622X0.019685*%
%ADD22R,0.035433X0.031496*%
G04 #@! TA.AperFunction,ViaPad*
%ADD23C,0.024*%
%FSLAX26Y26*%
G04*
G70*
G90*
G75*
G01*
G04 Bottom*
%LPD*%
X116892Y275000D2*
D10*
X152500D1*
X160000Y267500D1*
Y212500D1*
X167500Y205000D1*
X210000Y217500D2*
Y247500D1*
X205000Y252500D1*
Y273507D1*
X203507Y275000D1*
X240000D1*
X210000Y142697D2*
X257697D1*
X282500Y167500D1*
X281693Y242500D2*
Y168307D1*
X282500Y167500D1*
X50000Y227500D2*
Y215000D1*
X65000Y200000D1*
X111358D1*
X131260Y180098D1*
Y166260D1*
X115000Y150000D1*
X70000D1*
X50000Y130000D1*
Y50000D1*
Y350000D2*
Y270807D1*
X356902Y167500D2*
Y56902D1*
X350000Y50000D1*
X325000Y242500D2*
X330000D1*
X352500Y220000D1*
Y171902D1*
X356902Y167500D1*
D23*
X167500Y205000D3*
X240000Y275000D3*
D15*
X282500Y167500D3*
X356902D3*
D17*
X116892Y275000D3*
X203507D3*
D18*
X50000Y50000D3*
X150000D3*
X250000D3*
X350000D3*
X50000Y350000D3*
X150000D3*
X250000D3*
X350000D3*
D20*
X50000Y227500D3*
Y270807D3*
D19*
X325000Y242500D3*
X281693D3*
D22*
X210000Y217500D3*
Y142697D3*
X131260Y180098D3*
M02*
