G04 DipTrace 2.4.0.2*
%INOpamp.GTO*%
%MOIN*%
%ADD10C,0.0098*%
%ADD12C,0.003*%
%ADD14C,0.005*%
%ADD16C,0.0094*%
%ADD20C,0.0157*%
%ADD34C,0.0046*%
%FSLAX44Y44*%
G04*
G70*
G90*
G75*
G01*
%LNTopSilk*%
%LPD*%
X1585Y2919D2*
D10*
X2215D1*
X1585Y2447D2*
X2215D1*
D16*
X1215Y2683D3*
X497Y1420D2*
D14*
X63D1*
Y2283D1*
X497D1*
Y1420D1*
X3933Y1070D2*
X3500D1*
Y1933D1*
X3933D1*
Y1070D1*
X2870Y2450D2*
X3733D1*
Y2883D1*
X2870D1*
Y2450D1*
X1965Y1094D2*
X548D1*
Y2354D1*
X1965D1*
Y1094D1*
D20*
X1886Y937D3*
X3445Y1094D2*
D14*
X2028D1*
Y2354D1*
X3445D1*
Y1094D1*
D20*
X3366Y937D3*
X4000Y0D2*
D14*
X0D1*
X4000Y1000D2*
Y0D1*
X0Y1000D2*
X4000D1*
X0Y0D2*
Y1000D1*
X-250Y0D2*
X0Y250D1*
X250Y0D1*
X0Y-250D1*
X-250D1*
Y0D1*
X4000Y3000D2*
X0D1*
X4000Y4000D2*
Y3000D1*
X0Y4000D2*
X4000D1*
X0Y3000D2*
Y4000D1*
X-250Y3000D2*
X0Y3250D1*
X250Y3000D1*
X0Y2750D1*
X-250D1*
Y3000D1*
X838Y2822D2*
D12*
Y2621D1*
X905D1*
X933Y2631D1*
X953Y2650D1*
X962Y2669D1*
X972Y2698D1*
Y2746D1*
X962Y2774D1*
X953Y2793D1*
X933Y2813D1*
X905Y2822D1*
X838D1*
X1033Y2784D2*
X1053Y2793D1*
X1081Y2822D1*
Y2621D1*
X276Y1100D2*
Y1186D1*
X267Y1214D1*
X257Y1224D1*
X238Y1234D1*
X219D1*
X200Y1224D1*
X190Y1214D1*
X181Y1186D1*
Y1100D1*
X382D1*
X276Y1167D2*
X382Y1234D1*
X219Y1295D2*
X209Y1315D1*
X181Y1343D1*
X382D1*
X3743Y2027D2*
Y2113D1*
X3733Y2141D1*
X3724Y2151D1*
X3705Y2161D1*
X3685D1*
X3666Y2151D1*
X3657Y2141D1*
X3647Y2113D1*
Y2027D1*
X3848D1*
X3743Y2094D2*
X3848Y2161D1*
X3647Y2242D2*
Y2347D1*
X3724Y2289D1*
Y2318D1*
X3733Y2337D1*
X3743Y2347D1*
X3772Y2356D1*
X3791D1*
X3819Y2347D1*
X3839Y2328D1*
X3848Y2299D1*
Y2270D1*
X3839Y2242D1*
X3829Y2232D1*
X3810Y2222D1*
X2922Y3190D2*
X3008D1*
X3037Y3200D1*
X3046Y3209D1*
X3056Y3228D1*
Y3248D1*
X3046Y3267D1*
X3037Y3276D1*
X3008Y3286D1*
X2922D1*
Y3085D1*
X2989Y3190D2*
X3056Y3085D1*
X3213D2*
Y3286D1*
X3118Y3152D1*
X3261D1*
X764Y2237D2*
Y2093D1*
X774Y2065D1*
X793Y2046D1*
X822Y2036D1*
X841D1*
X870Y2046D1*
X889Y2065D1*
X898Y2093D1*
Y2237D1*
X960Y2198D2*
X979Y2208D1*
X1008Y2237D1*
Y2036D1*
X2131Y1477D2*
Y1333D1*
X2141Y1305D1*
X2160Y1286D1*
X2189Y1276D1*
X2208D1*
X2237Y1286D1*
X2256Y1305D1*
X2265Y1333D1*
Y1477D1*
X2337Y1429D2*
Y1438D1*
X2346Y1458D1*
X2356Y1467D1*
X2375Y1477D1*
X2413D1*
X2432Y1467D1*
X2442Y1458D1*
X2452Y1438D1*
Y1419D1*
X2442Y1400D1*
X2423Y1372D1*
X2327Y1276D1*
X2461D1*
X1958Y273D2*
Y120D1*
X1948Y91D1*
X1939Y82D1*
X1920Y72D1*
X1901D1*
X1882Y82D1*
X1872Y91D1*
X1862Y120D1*
Y139D1*
X2020Y234D2*
X2039Y244D1*
X2068Y273D1*
Y72D1*
X1935Y3913D2*
Y3760D1*
X1925Y3731D1*
X1916Y3722D1*
X1897Y3712D1*
X1878D1*
X1859Y3722D1*
X1849Y3731D1*
X1839Y3760D1*
Y3779D1*
X2006Y3865D2*
Y3874D1*
X2016Y3894D1*
X2025Y3903D1*
X2045Y3913D1*
X2083D1*
X2102Y3903D1*
X2111Y3894D1*
X2121Y3874D1*
Y3855D1*
X2111Y3836D1*
X2092Y3808D1*
X1997Y3712D1*
X2131D1*
X66Y868D2*
D34*
X95Y882D1*
X138Y925D1*
Y624D1*
M02*
