G04 DipTrace Beta 2.9.0.1*
G04 DUALopampTOP.GTL*
%MOIN*%
G04 #@! TF.FileFunction,Copper,L1,Top*
G04 #@! TF.Part,Single*
G04 #@! TA.AperFunction,Conductor,NotC*
%ADD10C,0.01*%
G04 #@! TA.AperFunction,SMDPad,CuDef*
%ADD14R,0.027559X0.051181*%
%ADD16R,0.023622X0.023622*%
G04 #@! TA.AperFunction,ComponentPad*
%ADD17C,0.06*%
G04 #@! TA.AperFunction,SMDPad,CuDef*
%ADD18R,0.023622X0.019685*%
%ADD19R,0.019685X0.023622*%
%ADD21R,0.035433X0.031496*%
G04 #@! TA.AperFunction,ViaPad*
%ADD22C,0.024*%
%FSLAX26Y26*%
G04*
G70*
G90*
G75*
G01*
G04 Top*
%LPD*%
X205000Y192500D2*
D10*
X215000D1*
Y146614D1*
X203386Y135000D1*
X102500Y137500D2*
X200886D1*
X203386Y135000D1*
X205000Y267303D2*
X275197D1*
X285000Y257500D1*
Y224193D1*
X316693Y192500D1*
X50000Y225000D2*
X121358D1*
X126260Y229902D1*
Y326260D1*
X150000Y350000D1*
X50000D2*
Y268307D1*
X360000Y192500D2*
Y60000D1*
X350000Y50000D1*
X359402Y257500D2*
Y193098D1*
X360000Y192500D1*
D22*
X102500Y137500D3*
D14*
X285000Y257500D3*
X359402D3*
D16*
X290000Y135000D3*
X203386D3*
D17*
X50000Y50000D3*
X150000D3*
X250000D3*
X350000D3*
X50000Y350000D3*
X150000D3*
X250000D3*
X350000D3*
D18*
X50000Y225000D3*
Y268307D3*
D19*
X360000Y192500D3*
X316693D3*
D21*
X205000D3*
Y267303D3*
X126260Y229902D3*
M02*
