G04 DipTrace Beta 2.9.0.1*
G04 DUALopampTOP.GTO*
%MOIN*%
G04 #@! TF.FileFunction,Legend,Top*
G04 #@! TF.Part,Single*
%ADD10C,0.01*%
%ADD13C,0.005*%
%ADD15C,0.009433*%
%ADD20C,0.015746*%
%ADD12C,0.003*%
%FSLAX26Y26*%
G04*
G70*
G90*
G75*
G01*
G04 TopSilk*
%LPD*%
X251000Y222067D2*
D13*
X393000D1*
Y292933D1*
X251000D1*
Y222067D1*
X278194Y111379D2*
D10*
X215203D1*
X278194Y158621D2*
X215203D1*
D15*
X315202Y135000D3*
X400000Y0D2*
D13*
X-10D1*
X400000Y100000D2*
Y0D1*
X-10Y100000D2*
X400000D1*
X-10Y0D2*
Y100000D1*
X-25000Y0D2*
X-10Y25000D1*
X24980Y0D1*
X-10Y-25000D1*
X-25000D1*
Y0D1*
X400000Y300000D2*
X-10D1*
X400000Y400000D2*
Y300000D1*
X-10Y400000D2*
X400000D1*
X-10Y300000D2*
Y400000D1*
X-25000Y300000D2*
X-10Y325000D1*
X24980Y300000D1*
X-10Y275000D1*
X-25000D1*
Y300000D1*
X71654Y203654D2*
X28346D1*
Y289961D1*
X71654D1*
Y203654D1*
X381346Y214154D2*
X295039D1*
Y170846D1*
X381346D1*
Y214154D1*
X236496Y166910D2*
X94764D1*
Y292894D1*
X236496D1*
Y166910D1*
D20*
X228623Y151164D3*
X303687Y319947D2*
D12*
X302737Y321848D1*
X300813Y323772D1*
X298912Y324722D1*
X295087D1*
X293164Y323772D1*
X291263Y321848D1*
X290290Y319947D1*
X289339Y317073D1*
Y312276D1*
X290290Y309424D1*
X291263Y307500D1*
X293164Y305599D1*
X295087Y304626D1*
X298912D1*
X300813Y305599D1*
X302737Y307500D1*
X303687Y309424D1*
X309863Y320876D2*
X311787Y321848D1*
X314661Y324700D1*
Y304626D1*
X261062Y95411D2*
Y75315D1*
X267760D1*
X270634Y76287D1*
X272558Y78189D1*
X273508Y80112D1*
X274459Y82964D1*
Y87761D1*
X273508Y90635D1*
X272558Y92537D1*
X270634Y94460D1*
X267760Y95411D1*
X261062D1*
X280635Y91564D2*
X282558Y92537D1*
X285432Y95389D1*
Y75315D1*
X196800Y79289D2*
Y63991D1*
X195849Y61117D1*
X194876Y60166D1*
X192975Y59193D1*
X191052D1*
X189150Y60166D1*
X188200Y61117D1*
X187227Y63991D1*
Y65892D1*
X202975Y75442D2*
X204899Y76415D1*
X207773Y79267D1*
Y59193D1*
X197500Y384289D2*
Y368991D1*
X196549Y366117D1*
X195576Y365166D1*
X193675Y364193D1*
X191752D1*
X189851Y365166D1*
X188900Y366117D1*
X187927Y368991D1*
Y370892D1*
X204648Y379492D2*
Y380442D1*
X205599Y382366D1*
X206550Y383316D1*
X208473Y384267D1*
X212298D1*
X214199Y383316D1*
X215149Y382366D1*
X216122Y380442D1*
Y378541D1*
X215149Y376618D1*
X213248Y373766D1*
X203676Y364193D1*
X217073D1*
X48630Y155322D2*
Y163922D1*
X47657Y166796D1*
X46707Y167769D1*
X44805Y168719D1*
X42882D1*
X40981Y167769D1*
X40008Y166796D1*
X39057Y163922D1*
Y155322D1*
X59153D1*
X48630Y162021D2*
X59153Y168719D1*
X39079Y186369D2*
Y176818D1*
X47679Y175868D1*
X46729Y176818D1*
X45756Y179692D1*
Y182544D1*
X46729Y185418D1*
X48630Y187342D1*
X51504Y188292D1*
X53405D1*
X56279Y187342D1*
X58203Y185418D1*
X59153Y182544D1*
Y179692D1*
X58203Y176818D1*
X57230Y175868D1*
X55329Y174895D1*
X319694Y156370D2*
X328294D1*
X331168Y157343D1*
X332141Y158293D1*
X333091Y160195D1*
Y162118D1*
X332141Y164019D1*
X331168Y164992D1*
X328294Y165943D1*
X319694D1*
Y145847D1*
X326393Y156370D2*
X333091Y145847D1*
X350741Y163069D2*
X349790Y164970D1*
X346916Y165921D1*
X345015D1*
X342141Y164970D1*
X340218Y162096D1*
X339267Y157321D1*
Y152545D1*
X340218Y148721D1*
X342141Y146797D1*
X345015Y145847D1*
X345966D1*
X348818Y146797D1*
X350741Y148721D1*
X351692Y151595D1*
Y152545D1*
X350741Y155419D1*
X348818Y157321D1*
X345966Y158271D1*
X345015D1*
X342141Y157321D1*
X340218Y155419D1*
X339267Y152545D1*
X139145Y282183D2*
Y267835D1*
X140095Y264961D1*
X142019Y263060D1*
X144893Y262087D1*
X146794D1*
X149668Y263060D1*
X151591Y264961D1*
X152542Y267835D1*
Y282183D1*
X160641Y282161D2*
X171142D1*
X165416Y274512D1*
X168290D1*
X170192Y273561D1*
X171142Y272610D1*
X172115Y269736D1*
Y267835D1*
X171142Y264961D1*
X169241Y263038D1*
X166367Y262087D1*
X163493D1*
X160641Y263038D1*
X159691Y264010D1*
X158718Y265912D1*
M02*
