G04 DipTrace Beta 2.9.0.1*
G04 DUALopampTOP.GBL*
%MOIN*%
G04 #@! TF.FileFunction,Copper,L2,Bot*
G04 #@! TF.Part,Single*
G04 #@! TA.AperFunction,Conductor,NotC*
%ADD10C,0.01*%
G04 #@! TA.AperFunction,ComponentPad*
%ADD17C,0.06*%
G04 #@! TA.AperFunction,SMDPad,CuDef*
%ADD18R,0.023622X0.019685*%
%ADD19R,0.019685X0.023622*%
%ADD21R,0.035433X0.031496*%
G04 #@! TA.AperFunction,ViaPad*
%ADD22C,0.024*%
%FSLAX26Y26*%
G04*
G70*
G90*
G75*
G01*
G04 Bottom*
%LPD*%
X305539Y139154D2*
D10*
Y166961D1*
X282500Y190000D1*
Y228858D1*
X281260Y230098D1*
X155539Y139154D2*
Y146961D1*
X132500Y170000D1*
Y228858D1*
X131260Y230098D1*
X50000Y225000D2*
Y173307D1*
Y225000D2*
X80000D1*
X87500Y232500D1*
Y260000D1*
X97500Y270000D1*
X162500D1*
X170000Y262500D1*
Y205000D1*
X182500Y192500D1*
X209803D1*
X210000Y192697D1*
X237697D1*
X245000Y200000D1*
Y260000D1*
X252500Y267500D1*
X307500D1*
X317500Y257500D1*
Y207500D1*
X330000Y195000D1*
X357697D1*
X360000Y192697D1*
X50000Y130000D2*
X95000D1*
X102500Y137500D1*
X350000Y50000D2*
Y138000D1*
X348846Y139154D1*
X198846D2*
X225846D1*
X265000Y100000D1*
X300000D1*
X350000Y50000D1*
X250000Y350000D2*
Y307500D1*
X210000Y267500D1*
X350000Y350000D2*
Y277500D1*
X360000Y267500D1*
D22*
X102500Y137500D3*
D17*
X50000Y50000D3*
X150000D3*
X250000D3*
X350000D3*
X50000Y350000D3*
X150000D3*
X250000D3*
X350000D3*
D18*
X50000Y225000D3*
Y268307D3*
D19*
X348846Y139154D3*
X305539D3*
X198846D3*
X155539D3*
D18*
X50000Y130000D3*
Y173307D3*
D21*
X360000Y267500D3*
Y192697D3*
X281260Y230098D3*
X210000Y267500D3*
Y192697D3*
X131260Y230098D3*
M02*
